<?xml version="1.0" standalone="no"?>
<!DOCTYPE svg PUBLIC "-//W3C//DTD SVG 20010904//EN"
 "http://www.w3.org/TR/2001/REC-SVG-20010904/DTD/svg10.dtd">
<svg version="1.0" xmlns="http://www.w3.org/2000/svg"
 width="700.000000pt" height="700.000000pt" viewBox="0 0 700.000000 700.000000"
 preserveAspectRatio="xMidYMid meet">
<metadata>
Created by potrace 1.14, written by Peter Selinger 2001-2017
</metadata>
<g transform="translate(0.000000,700.000000) scale(0.100000,-0.100000)"
fill="#000000" stroke="none">
<path d="M2870 6499 c-184 -94 -381 -195 -437 -225 -61 -32 -108 -51 -118 -48
-10 4 -27 -4 -46 -22 -28 -27 -29 -27 -29 -6 0 37 -24 25 -89 -43 -34 -35 -84
-77 -112 -92 -46 -26 -64 -56 -38 -65 6 -2 -28 -34 -76 -72 -61 -49 -84 -73
-80 -85 3 -10 -15 -39 -50 -80 -45 -51 -53 -66 -44 -78 10 -12 18 -8 52 24
l40 38 -42 -50 c-44 -53 -85 -118 -230 -365 -87 -148 -105 -190 -80 -190 7 0
9 -10 4 -27 -17 -68 -25 -147 -17 -155 11 -11 -3 -74 -19 -94 -5 -7 -9 -70 -9
-140 1 -90 -4 -144 -15 -178 -20 -64 -19 -76 4 -76 22 0 28 -23 37 -165 5 -81
3 -109 -11 -150 -12 -36 -19 -96 -23 -209 l-5 -159 26 6 c41 11 79 -43 117
-165 76 -248 95 -301 112 -306 26 -6 29 -25 39 -222 4 -102 10 -194 11 -205 2
-14 -2 -19 -13 -17 -24 3 -25 -9 -19 -132 3 -75 9 -111 18 -114 21 -7 13 -28
-29 -76 -34 -38 -38 -47 -24 -52 10 -4 27 4 47 22 l30 29 -4 -73 c-4 -51 -10
-77 -21 -85 -12 -8 -18 -36 -23 -92 -7 -86 11 -268 26 -273 6 -2 10 -10 10
-18 0 -9 -4 -13 -9 -9 -5 3 -12 1 -16 -5 -3 -5 -7 -110 -9 -232 -3 -194 -6
-238 -28 -338 -14 -63 -23 -118 -21 -123 2 -4 10 -7 18 -7 13 0 23 33 40 135
4 22 16 50 27 61 18 20 20 42 24 230 3 115 8 229 11 254 l6 45 38 -119 c21
-66 48 -163 60 -215 12 -53 24 -109 28 -126 5 -21 13 -30 26 -30 13 0 29 -15
44 -40 23 -38 48 -73 216 -295 97 -128 209 -234 240 -226 32 8 103 -49 196
-158 40 -47 78 -86 85 -86 28 0 22 22 -21 75 l-46 56 63 -40 c35 -22 105 -69
155 -105 97 -69 108 -74 116 -53 8 20 -189 163 -340 246 -77 44 -145 102 -268
232 -27 29 -3 9 55 -44 99 -92 133 -112 142 -85 2 6 32 -11 71 -41 54 -43 72
-52 93 -47 19 5 36 -2 74 -31 27 -21 49 -46 50 -55 0 -21 98 -92 205 -149 44
-23 112 -64 152 -91 70 -46 108 -59 115 -38 5 15 147 -14 161 -33 8 -10 39
-17 97 -21 47 -3 100 -8 118 -12 25 -5 32 -3 32 9 0 21 22 27 97 27 56 0 66 3
70 20 3 13 17 22 40 26 33 6 53 27 39 41 -3 4 -48 -4 -98 -17 -105 -27 -116
-27 -288 1 -227 36 -227 36 -234 78 -9 53 -7 174 3 189 5 9 12 -14 20 -62 9
-52 17 -76 26 -76 8 0 16 4 19 9 9 15 -22 176 -48 243 -21 57 -26 63 -52 63
-43 1 -85 25 -79 46 4 12 -11 29 -57 62 -122 88 -188 153 -244 242 -56 89 -58
109 -3 29 21 -32 34 -43 42 -35 19 19 -12 65 -118 182 -68 74 -101 117 -95
124 15 18 -65 133 -158 228 -82 82 -112 103 -112 75 0 -7 12 -25 28 -41 15
-17 -22 12 -83 64 -60 52 -130 110 -154 129 -43 35 -103 114 -135 180 -15 31
-11 28 31 -20 114 -130 131 -146 139 -127 4 12 -1 26 -16 43 -13 13 -18 24
-12 24 24 0 10 22 -56 87 -62 62 -136 157 -170 220 -26 46 -53 406 -33 426 7
7 11 60 11 151 0 239 22 344 103 494 28 51 31 53 39 33 4 -13 5 -27 2 -32 -3
-6 -1 -15 4 -22 7 -8 -3 -40 -33 -104 -24 -50 -40 -94 -37 -97 18 -19 39 11
114 161 79 160 163 283 192 283 7 0 36 28 64 63 28 34 116 127 196 207 135
134 164 170 135 170 -6 0 -45 -31 -87 -70 -42 -38 -83 -70 -92 -70 -18 0 -67
-50 -169 -172 -39 -48 -77 -87 -83 -85 -7 1 -26 -18 -42 -43 -64 -94 -66 -96
-41 -36 43 100 96 178 188 273 56 58 87 98 84 107 -5 14 51 68 133 127 64 46
65 44 11 -26 -30 -39 -58 -75 -63 -81 -5 -7 -3 -16 5 -22 11 -9 33 13 108 105
116 144 114 142 93 150 -11 4 -23 -2 -35 -18 l-18 -24 -11 30 c-10 25 -48 207
-74 358 -4 23 -12 37 -21 37 -20 0 -19 51 1 119 l15 53 157 -3 c135 -3 157 -2
157 11 0 19 -106 33 -216 28 l-76 -3 15 32 c13 27 22 33 47 33 17 0 37 -6 43
-12 10 -10 87 -13 306 -15 l293 -1 144 -47 c79 -26 161 -49 182 -51 47 -5 138
-47 232 -108 39 -25 78 -46 87 -46 27 0 148 -63 148 -77 0 -20 10 -21 145 -13
153 10 235 26 235 45 0 22 -14 25 -54 14 -20 -6 -47 -9 -59 -7 -12 2 35 18
106 36 l127 32 38 -19 c21 -11 43 -25 49 -33 24 -29 136 -623 133 -703 -5
-131 -6 -130 10 -130 9 0 18 14 22 35 4 21 5 12 2 -22 -14 -153 -22 -284 -17
-290 11 -19 34 -6 40 22 3 17 11 30 18 30 23 0 27 31 36 250 4 118 13 247 19
285 24 157 24 165 7 165 -9 0 -19 -11 -23 -25 -6 -25 -7 -25 -25 -9 -17 15
-19 32 -18 143 0 69 3 143 7 165 l7 38 57 -83 c31 -46 75 -104 97 -128 35 -38
41 -51 41 -90 1 -25 5 -65 9 -88 5 -27 5 -43 -2 -46 -6 -2 -7 -11 -4 -21 6
-14 10 -16 21 -7 17 15 26 -4 27 -62 1 -58 12 -92 29 -92 10 0 14 9 13 27 -1
21 3 28 20 30 12 2 23 12 25 22 2 11 43 74 91 140 48 67 98 138 110 159 12 20
24 37 25 37 1 0 1 -13 -2 -30 -3 -23 0 -30 12 -30 19 0 33 31 51 115 7 33 19
73 26 88 11 23 11 30 0 37 -9 5 -10 13 -4 24 9 16 11 16 22 2 8 -9 19 -16 27
-16 28 0 24 22 -10 60 -39 43 -45 60 -21 60 20 0 19 13 -5 52 -11 18 -20 46
-20 62 0 25 -3 27 -24 22 -21 -5 -32 7 -102 107 -122 175 -134 189 -150 176
-11 -9 0 -31 63 -123 42 -61 98 -140 125 -174 27 -35 48 -66 45 -68 -4 -5
-172 217 -222 294 -15 23 -32 42 -37 42 -40 0 17 -98 182 -308 l80 -103 0 -75
c0 -87 -4 -95 -162 -307 l-96 -128 -1 97 c-1 53 -4 101 -7 106 -4 5 4 17 16
25 21 15 22 21 17 102 -3 59 -15 116 -37 181 -32 99 -61 203 -56 208 2 1 17
-26 34 -61 34 -72 76 -200 87 -264 4 -24 11 -43 17 -43 5 0 8 -40 7 -100 -3
-102 2 -123 24 -101 15 16 14 261 -2 411 -14 131 -32 194 -56 199 -15 3 -17
-2 -12 -32 l5 -35 -57 62 c-31 34 -66 76 -76 93 -12 21 -26 32 -39 31 -12 0
-48 15 -80 36 -105 64 -239 104 -256 76 -4 -6 -16 -10 -26 -8 -14 3 -5 10 30
26 71 32 115 42 202 45 l78 2 21 -38 c20 -38 51 -47 49 -14 -1 9 4 17 12 17
22 0 16 27 -11 48 -57 45 -13 172 100 284 37 37 76 70 86 73 10 4 19 10 19 15
0 4 27 25 60 46 33 22 60 44 60 51 0 23 -26 19 -69 -10 -47 -32 -66 -25 -54
20 5 23 5 23 -118 22 -68 -1 -169 -4 -224 -8 -87 -5 -100 -8 -103 -25 -4 -18
2 -19 123 -14 l127 6 -66 -23 c-35 -12 -81 -33 -101 -45 -19 -12 -62 -28 -95
-36 -134 -31 -244 -120 -319 -257 -43 -77 -136 -181 -214 -237 -45 -32 -57
-53 -38 -64 12 -8 76 36 129 87 l42 41 0 -48 c0 -40 3 -47 18 -44 10 2 21 17
26 39 7 28 21 43 65 72 83 54 134 100 210 191 74 88 66 83 265 153 54 18 102
33 107 31 5 -2 -4 -18 -21 -36 -43 -48 -67 -98 -83 -178 l-14 -69 -94 -12
c-115 -14 -157 -26 -234 -66 -75 -40 -185 -124 -185 -143 0 -24 29 -15 84 26
29 22 63 40 75 40 69 0 351 -101 351 -126 0 -8 17 -45 38 -82 71 -125 83 -158
94 -254 11 -104 18 -124 42 -120 13 2 16 -5 15 -35 -1 -21 -3 -30 -6 -20 -7
26 -39 17 -36 -11 2 -12 1 -22 -1 -22 -13 0 -46 72 -46 99 0 24 -4 31 -19 31
-12 0 -23 11 -30 32 -6 17 -14 28 -18 25 -3 -4 -26 21 -50 55 -29 41 -40 65
-33 72 13 13 13 36 1 36 -5 0 -22 5 -38 12 -15 6 -38 10 -51 9 -21 -2 -267 55
-286 66 -5 3 3 12 18 20 28 15 35 43 11 43 -9 0 -35 -10 -58 -22 -23 -12 -91
-42 -152 -68 -81 -34 -110 -51 -109 -63 1 -9 -1 -17 -5 -17 -3 0 -67 5 -141
10 -182 13 -224 26 -84 26 90 -1 109 2 109 14 0 12 -23 16 -122 21 -135 7
-356 29 -350 35 2 2 109 -3 238 -11 300 -19 319 -19 319 0 0 9 -6 17 -12 20
-7 2 -137 11 -288 20 -344 21 -423 32 -257 34 107 1 118 3 115 19 -3 15 -23
18 -193 24 -160 6 -329 23 -259 27 35 2 228 52 242 63 8 7 9 15 3 22 -8 9 -44
4 -143 -21 -80 -21 -172 -36 -230 -40 -69 -4 -99 -10 -102 -20 -8 -20 16 -26
99 -21 53 2 75 0 75 -8 0 -14 23 -24 52 -24 12 0 26 -7 32 -15 7 -9 47 -22 96
-31 116 -22 115 -21 100 -39 -10 -12 -26 -9 -109 20 -54 19 -111 34 -127 33
-16 0 -63 8 -104 20 -41 11 -101 23 -133 27 -49 6 -57 5 -57 -9 0 -13 -13 -16
-77 -15 l-78 1 78 21 c43 12 82 28 86 36 5 7 55 28 111 47 57 18 110 40 118
48 31 31 -15 28 -120 -7 -184 -62 -442 -106 -298 -51 40 15 55 26 55 40 0 24
-3 23 -158 -37 -71 -28 -138 -51 -150 -53 -12 -1 -35 -8 -50 -14 -35 -15 -40
-15 -32 -2 3 6 -1 13 -11 17 -20 7 -78 -51 -111 -112 -32 -59 -61 -184 -75
-317 -11 -105 -10 -119 4 -135 9 -10 38 -42 64 -71 26 -29 58 -55 71 -58 12
-4 23 -12 23 -20 0 -7 16 -21 35 -30 19 -9 35 -19 35 -23 0 -3 -31 -26 -68
-51 -69 -46 -225 -196 -295 -285 -22 -27 -37 -40 -33 -28 8 25 -9 40 -28 24
-7 -6 -28 -51 -46 -99 -18 -48 -38 -94 -45 -102 -54 -65 -172 -289 -225 -427
-35 -91 -45 -109 -55 -99 -8 7 -41 19 -75 26 -64 14 -80 28 -80 74 0 18 4 24
14 20 19 -7 16 -22 77 316 18 98 27 135 28 117 1 -12 7 -17 18 -15 11 2 24 23
35 58 18 60 24 45 8 -23 -5 -23 -18 -89 -29 -147 -11 -58 -29 -147 -41 -198
-21 -95 -20 -112 5 -112 9 0 18 21 26 61 9 45 14 57 21 45 18 -31 36 -15 58
52 34 101 94 258 130 337 26 58 33 67 41 53 7 -12 5 -32 -6 -65 -18 -52 -13
-93 11 -93 21 0 66 115 140 365 20 66 54 160 75 209 24 57 36 98 33 112 -3 13
1 54 10 93 19 85 48 320 40 332 -9 14 -34 10 -34 -5 0 -8 -7 -68 -15 -133 -25
-188 -77 -391 -140 -545 -39 -94 -46 -78 -11 25 12 37 19 70 15 73 -12 7 0 60
27 120 14 33 18 56 13 61 -10 10 30 206 76 379 14 51 25 99 25 108 0 25 -29
19 -40 -8 -14 -37 -75 -293 -105 -439 -19 -92 -39 -155 -72 -225 -40 -86 -148
-349 -199 -487 -11 -29 -20 -43 -22 -33 -5 27 57 262 73 274 45 33 114 243
175 529 24 110 64 286 91 390 39 155 46 192 35 199 -12 8 -10 20 7 67 19 52
24 58 56 64 42 8 103 38 151 73 31 24 46 27 155 33 109 7 142 10 214 25 21 5
23 3 12 -10 -14 -17 -7 -36 13 -36 26 0 221 217 302 336 45 65 89 134 98 152
15 29 15 33 1 38 -19 8 -9 20 -96 -111 -122 -184 -277 -362 -293 -336 -4 6
-18 11 -32 11 -22 0 -18 6 35 50 63 52 72 67 46 76 -12 5 -10 12 9 37 14 18
38 57 53 87 16 30 46 81 67 112 27 41 36 63 31 75 -10 22 -7 54 7 70 5 6 30
16 56 22 26 5 81 22 122 36 41 15 116 33 166 41 119 18 228 53 232 77 5 23
-17 22 -112 -8 -91 -30 -115 -28 -63 3 37 22 50 52 22 52 -9 0 -46 -19 -83
-42 -62 -40 -73 -43 -152 -48 -69 -4 -85 -8 -88 -22 -2 -12 5 -17 25 -20 21
-2 11 -7 -39 -19 l-67 -16 2 36 c1 25 -2 36 -12 36 -10 0 -32 -51 -65 -151
-57 -168 -79 -204 -213 -338 -59 -59 -96 -86 -166 -121 -106 -53 -139 -59 -82
-13 81 64 183 176 243 266 34 51 62 100 62 108 0 36 -38 3 -94 -81 -34 -50
-91 -121 -128 -160 l-67 -70 48 115 c27 63 66 167 87 230 21 63 54 138 72 167
32 49 35 74 9 73 -7 -1 -34 -33 -62 -73 -87 -125 -158 -192 -239 -226 -114
-47 -224 -66 -309 -52 -102 17 -118 32 -27 25 86 -7 189 11 266 47 36 17 100
74 251 225 l202 202 98 16 98 16 210 -35 c310 -53 288 -51 283 -29 -2 12 -18
22 -53 30 -75 18 -37 16 139 -6 88 -11 178 -21 200 -21 23 -1 34 -3 25 -6 -10
-2 -23 -28 -34 -71 -57 -222 -79 -286 -137 -401 -71 -140 -177 -295 -222 -322
-17 -10 -51 -21 -76 -24 -25 -3 -56 -8 -69 -11 -24 -5 -24 -5 -7 18 36 49 185
277 230 352 33 54 44 82 37 89 -16 16 -32 -3 -122 -146 -113 -181 -210 -315
-232 -321 -12 -3 -17 0 -14 7 3 7 17 41 32 77 15 36 56 132 92 214 36 81 66
156 67 166 2 30 58 97 96 115 62 29 130 77 130 90 0 27 -19 24 -81 -13 -34
-20 -67 -36 -72 -34 -5 2 -17 -4 -26 -12 -27 -24 -131 -49 -236 -55 -84 -5
-100 -9 -103 -23 -3 -16 6 -18 92 -18 53 0 96 -3 96 -8 0 -4 -22 -53 -49 -108
-58 -118 -145 -238 -235 -326 -58 -58 -73 -88 -43 -88 26 1 148 132 246 263
56 75 104 137 106 137 3 0 -7 -26 -21 -57 -68 -151 -134 -319 -131 -333 1 -8
10 -14 20 -12 19 3 23 -18 6 -35 -7 -7 -9 -19 -5 -29 6 -15 11 -13 39 14 24
23 43 32 67 32 19 1 54 4 77 9 33 6 40 5 36 -6 -3 -7 -1 -19 5 -26 8 -9 -2
-19 -44 -41 -50 -26 -64 -43 -48 -59 12 -11 141 62 217 123 42 33 104 91 138
128 78 85 389 498 389 518 0 33 -38 10 -80 -49 -240 -334 -362 -479 -482 -572
l-63 -49 34 39 c19 22 53 52 75 67 113 76 200 215 276 440 41 120 46 166 17
155 -10 -4 -8 16 8 77 l22 81 139 -4 c76 -2 144 -7 150 -12 6 -5 75 -10 153
-11 l142 -3 -70 -54 c-39 -29 -71 -61 -71 -69 0 -9 -11 -27 -24 -41 -13 -15
-31 -38 -41 -53 -16 -25 -16 -28 -1 -34 11 -4 34 13 75 55 32 34 63 61 69 61
16 0 -22 -142 -57 -206 -18 -34 -53 -81 -78 -105 l-45 -44 45 71 c71 113 79
130 63 143 -17 14 -22 7 -121 -154 -91 -148 -156 -236 -238 -322 -61 -63 -76
-74 -123 -84 -40 -9 -54 -17 -54 -30 0 -10 9 -19 22 -21 16 -2 7 -12 -45 -42
-37 -21 -67 -45 -67 -53 0 -33 102 15 185 87 25 22 62 44 83 49 107 29 274
191 431 420 53 77 61 101 36 101 -8 0 -15 2 -15 5 0 16 51 103 72 123 l25 22
-5 -29 c-4 -30 13 -50 30 -33 5 5 12 29 15 52 5 38 10 44 51 61 32 14 63 19
101 17 l56 -3 2 -45 c2 -25 2 -63 1 -85 -5 -117 -3 -130 15 -133 14 -3 17 4
17 37 0 22 5 52 12 68 6 15 10 36 9 45 -6 51 68 239 149 374 25 43 28 53 16
63 -11 9 -18 7 -34 -13 -20 -27 -32 -25 -32 6 0 10 -6 18 -12 18 -7 0 -80 -20
-162 -44 -82 -25 -154 -42 -160 -40 -6 2 -48 -9 -94 -26 -90 -33 -241 -51
-264 -32 -7 5 -106 15 -220 21 -114 6 -262 18 -330 26 -68 8 -150 17 -182 21
-53 6 -57 9 -41 21 34 24 3 32 -134 35 l-134 3 59 24 c32 14 93 44 135 68 l77
43 296 0 c246 0 296 2 296 14 0 8 -7 17 -16 20 -9 3 -126 6 -261 6 -136 0
-243 3 -240 7 4 3 2 12 -4 19 -9 11 -18 10 -50 -6 -29 -15 -58 -20 -124 -20
-77 0 -86 -2 -83 -17 2 -13 16 -19 48 -23 l45 -5 -80 -42 c-144 -74 -195 -84
-390 -81 -149 3 -170 1 -173 -13 -2 -12 9 -19 40 -26 l43 -10 -30 -8 c-16 -5
-41 -16 -55 -26 -23 -15 -246 -56 -256 -46 -2 2 131 72 297 156 275 140 323
171 278 178 -8 2 -165 -74 -349 -168z m160 -94 c-7 -8 -14 -15 -15 -15 -2 0
-5 7 -9 15 -4 10 1 15 16 15 17 0 18 -2 8 -15z m400 -5 c47 -11 67 -18 45 -15
-132 15 -155 19 -155 26 0 12 12 11 110 -11z m-281 6 c-10 -9 -79 -14 -74 -5
4 5 22 9 42 9 20 0 34 -2 32 -4z m1907 -17 c3 -6 -15 -57 -42 -113 l-48 -101
-68 3 c-37 2 -81 -1 -98 -6 -16 -6 -30 -7 -30 -3 0 18 30 32 96 44 49 9 69 17
69 27 0 8 -11 17 -25 20 -28 6 -34 37 -11 64 13 15 126 76 142 76 4 0 11 -5
15 -11z m-1503 -16 c-7 -2 -19 -2 -25 0 -7 3 -2 5 12 5 14 0 19 -2 13 -5z m60
-10 c-7 -2 -21 -2 -30 0 -10 3 -4 5 12 5 17 0 24 -2 18 -5z m1176 -27 c-14
-13 -70 -36 -64 -26 4 6 17 15 29 20 22 9 42 13 35 6z m-1904 -87 c-101 -102
-199 -173 -275 -200 -76 -26 -88 -35 -73 -50 8 -8 25 -7 63 4 49 14 51 14 36
-2 -48 -53 -197 -96 -307 -88 -71 5 -199 47 -199 66 0 21 106 121 180 171 152
102 213 130 296 135 39 3 92 9 116 14 23 6 52 10 63 10 19 0 19 0 1 -11 -62
-36 -172 -72 -285 -93 -42 -8 -78 -20 -83 -28 -4 -8 -30 -20 -58 -27 -42 -10
-50 -16 -50 -35 0 -27 29 -35 127 -35 105 0 231 53 361 153 47 37 132 85 152
87 2 0 -27 -32 -65 -71z m1812 45 c-3 -3 -12 -4 -19 -1 -8 3 -5 6 6 6 11 1 17
-2 13 -5z m73 -49 c-7 -8 -17 -15 -22 -15 -6 0 -5 7 2 15 7 8 17 15 22 15 6 0
5 -7 -2 -15z m93 8 c-7 -2 -19 -2 -25 0 -7 3 -2 5 12 5 14 0 19 -2 13 -5z
m-2183 -48 c0 -4 -33 -22 -74 -41 -49 -24 -93 -37 -132 -40 l-59 -4 105 35
c86 28 141 47 158 54 1 1 2 -1 2 -4z m2036 -52 c-16 -32 -96 -100 -96 -82 0
25 43 86 68 96 41 16 44 15 28 -14z m-1156 -150 c-1 -10 -50 -70 -50 -62 0 14
32 69 41 69 5 0 9 -3 9 -7z m-1420 -78 c14 -8 19 -14 13 -15 -7 0 -13 -9 -13
-19 0 -15 15 -25 55 -40 31 -12 61 -21 66 -21 6 0 1 -8 -12 -19 -18 -14 -21
-22 -12 -32 15 -20 5 -179 -13 -186 -10 -4 -312 81 -322 91 -2 3 74 106 148
199 25 31 49 57 55 57 5 -1 21 -7 35 -15z m630 -131 c-45 -110 -77 -177 -114
-236 -5 -9 -20 -21 -33 -27 -23 -10 -123 -4 -123 9 0 3 16 51 36 106 50 137
49 134 28 134 -11 1 -2 7 19 15 21 7 64 30 94 52 112 77 138 92 141 82 2 -5
-19 -66 -48 -135z m-840 41 c-24 -25 -46 -45 -49 -45 -3 0 15 20 39 45 24 25
46 45 49 45 3 0 -15 -20 -39 -45z m3515 5 c-10 -11 -21 -20 -24 -20 -3 0 -12
9 -19 20 -11 19 -10 20 24 20 36 0 37 0 19 -20z m-71 -32 c15 -24 -3 -39 -45
-39 -19 0 -60 0 -91 0 -32 0 -58 2 -58 4 0 5 101 42 135 50 31 8 47 3 59 -15z
m-3015 -4 c9 -8 -45 -2 -64 6 -14 7 -8 8 20 3 22 -3 42 -7 44 -9z m1526 -43
c-13 -27 -29 -52 -34 -55 -5 -3 4 19 21 49 37 68 47 73 13 6z m595 -10 c-54
-77 -225 -251 -274 -280 l-39 -22 50 58 c28 32 75 92 104 133 35 49 60 74 70
72 9 -2 41 20 70 47 30 28 55 50 57 51 2 0 -15 -26 -38 -59z m-1945 17 c-14
-44 -78 -224 -80 -226 -2 -2 -44 4 -93 14 l-90 17 5 86 c3 47 6 91 8 98 3 8
38 13 112 16 59 1 116 4 125 5 10 1 16 -3 13 -10z m2655 -42 c0 -8 -123 -46
-129 -40 -13 13 46 44 87 44 23 0 42 -2 42 -4z m-250 -86 c-40 -46 -50 -64
-45 -81 6 -17 -6 -34 -62 -88 -38 -36 -83 -74 -100 -84 -30 -16 -31 -16 -26 1
2 11 45 68 94 127 49 60 89 115 89 121 0 12 76 64 93 64 5 0 -14 -27 -43 -60z
m-2992 -10 c7 0 15 -6 18 -14 10 -27 145 -126 195 -143 l50 -18 -6 -45 c-20
-135 -212 -717 -310 -939 -36 -80 -65 -151 -65 -158 0 -23 29 -14 45 15 10 17
14 20 11 7 -8 -32 -85 -393 -103 -482 -13 -68 -18 -79 -28 -66 -7 9 -17 13
-22 10 -6 -4 -18 9 -29 28 -17 32 -17 37 -2 87 9 29 26 91 37 138 66 276 94
385 120 467 24 77 26 93 15 105 -12 12 -7 48 35 238 27 124 72 311 99 417 27
106 47 195 44 198 -17 17 -33 -2 -51 -62 -16 -55 -79 -308 -123 -496 -7 -30
-12 -36 -22 -28 -20 17 -29 -1 -60 -119 -16 -58 -39 -143 -51 -190 -13 -47
-38 -147 -56 -223 -17 -75 -34 -135 -37 -133 -10 11 157 828 213 1040 24 93
42 173 39 178 -10 17 -25 7 -38 -24 -54 -129 -290 -1276 -271 -1309 4 -6 14
-8 22 -5 10 4 13 1 9 -12 -17 -56 -17 -69 -2 -75 8 -3 18 -2 21 3 3 5 46 170
95 366 50 197 93 360 96 363 4 3 4 -7 1 -24 -24 -121 -29 -159 -20 -162 6 -2
1 -36 -14 -86 -13 -45 -37 -138 -53 -207 -67 -279 -95 -380 -106 -380 -6 0
-34 19 -63 42 l-51 42 0 138 0 138 24 -6 c24 -6 24 -4 30 78 3 45 11 153 18
238 16 208 16 215 -2 215 -8 1 -24 6 -35 12 -19 11 -19 15 27 170 129 442 122
424 225 595 l64 106 27 -14 c15 -8 33 -14 40 -14z m200 -64 c45 -15 82 -31 81
-34 0 -4 -4 -15 -7 -24 -7 -16 -12 -15 -67 12 -56 27 -138 88 -105 78 8 -3 52
-17 98 -32z m-374 -6 c-17 -33 -27 -40 -17 -12 6 17 23 42 28 42 2 0 -3 -13
-11 -30z m611 -63 c34 -7 55 -16 48 -20 -19 -12 -173 4 -173 18 0 20 14 27 40
21 14 -4 52 -12 85 -19z m118 -24 c-7 -2 -19 -2 -25 0 -7 3 -2 5 12 5 14 0 19
-2 13 -5z m-152 -38 l67 -6 -23 -62 c-13 -34 -35 -95 -49 -134 -51 -144 -75
-209 -102 -285 -16 -44 -35 -78 -44 -81 -10 -3 -22 -36 -38 -108 -24 -106 -52
-193 -141 -448 -28 -80 -51 -146 -51 -148 0 -2 -7 -3 -15 -3 -15 0 -35 -56
-35 -99 0 -21 -59 -173 -96 -246 -14 -26 -15 -27 -10 -5 3 14 18 81 32 150 14
69 31 128 37 131 5 4 47 155 92 335 96 382 102 402 203 714 53 165 75 247 73
273 -3 34 0 38 16 34 10 -3 48 -8 84 -12z m189 1 c0 -2 -21 -11 -46 -20 -33
-11 -44 -12 -41 -3 4 14 87 36 87 23z m-945 -326 c-4 -12 -9 -19 -12 -17 -3 3
-2 15 2 27 4 12 9 19 12 17 3 -3 2 -15 -2 -27z m3705 -21 c0 -21 -18 -15 -34
13 l-18 30 26 -17 c14 -10 26 -21 26 -26z m-2568 -26 c-9 -19 -23 -33 -34 -33
-18 0 -26 -26 -9 -32 6 -2 2 -31 -8 -67 l-17 -63 -12 40 c-22 71 -13 118 34
179 21 28 28 31 43 21 18 -11 18 -14 3 -45z m-1196 -144 c-48 -163 -62 -187
-22 -34 36 132 57 198 62 193 2 -3 -16 -74 -40 -159z m2307 134 c-7 -2 -19 -2
-25 0 -7 3 -2 5 12 5 14 0 19 -2 13 -5z m-1547 -144 c-13 -57 -41 -180 -61
-274 -47 -218 -110 -424 -133 -432 -23 -9 -30 -20 -48 -81 -9 -30 -18 -51 -21
-49 -2 3 17 85 42 183 26 99 55 213 66 254 20 84 170 513 176 506 2 -2 -7 -50
-21 -107z m2759 18 c7 -7 6 -8 -1 -4 -7 4 -17 0 -24 -8 -16 -19 -40 -19 -40
-1 0 8 -5 18 -10 21 -15 9 -40 -13 -38 -33 1 -10 0 -30 0 -46 -2 -26 -4 -28
-33 -22 -17 3 -67 22 -112 41 -44 19 -89 35 -99 35 -20 0 -25 -26 -6 -32 6 -2
-53 -21 -132 -41 -78 -20 -162 -46 -186 -58 l-43 -21 -161 82 c-88 44 -186 99
-217 122 l-58 40 58 -6 c32 -3 76 -15 98 -26 51 -27 144 -48 247 -56 l84 -7
-77 -24 c-81 -26 -91 -41 -37 -57 26 -7 51 -3 130 23 135 45 323 121 349 141
21 16 29 15 160 -18 76 -19 143 -39 148 -45z m385 22 c12 -22 20 -47 18 -55
-2 -8 -13 10 -25 41 -25 65 -22 72 7 14z m-289 -156 c51 -76 76 -123 85 -162
7 -30 12 -57 10 -59 -7 -6 -126 162 -151 213 -27 56 -44 132 -27 121 5 -3 43
-54 83 -113z m-2517 60 c24 -49 76 -240 76 -282 0 -21 -2 -22 -16 -10 -56 46
-109 205 -98 291 4 26 8 48 10 48 2 0 14 -21 28 -47z m2353 15 c-3 -8 -6 -5
-6 6 -1 11 2 17 5 13 3 -3 4 -12 1 -19z m40 -56 c-14 -18 -15 -12 -9 28 5 33
6 33 12 10 4 -14 2 -31 -3 -38z m-50 6 c-3 -8 -6 -5 -6 6 -1 11 2 17 5 13 3
-3 4 -12 1 -19z m-3130 -40 c-3 -8 -6 -5 -6 6 -1 11 2 17 5 13 3 -3 4 -12 1
-19z m2650 -4 c-3 -3 -12 -4 -19 -1 -8 3 -5 6 6 6 11 1 17 -2 13 -5z m-2920
-36 c-3 -8 -6 -5 -6 6 -1 11 2 17 5 13 3 -3 4 -12 1 -19z m1147 -18 c4 -25 3
-31 -4 -20 -5 8 -10 26 -10 39 0 32 6 24 14 -19z m2196 3 c0 -32 -5 -28 -14
10 -4 19 -3 26 4 22 5 -3 10 -18 10 -32z m100 1 c0 -21 -4 -33 -10 -29 -17 10
-11 65 7 65 2 0 3 -16 3 -36z m-3504 -124 l-13 -105 -2 72 c0 40 5 94 12 120
18 67 19 34 3 -87z m3464 -34 c11 -65 20 -159 19 -209 l-1 -92 -18 90 c-19 88
-39 346 -27 334 4 -3 16 -58 27 -123z m-2343 2 c9 -10 13 -21 10 -24 -8 -8
-67 85 -67 105 1 9 10 -2 20 -23 11 -22 27 -48 37 -58z m2703 -28 c17 -34 20
-58 20 -176 0 -76 -2 -135 -4 -133 -12 12 -25 133 -15 145 9 11 -1 77 -26 177
-10 39 1 33 25 -13z m-2571 -65 c1 -16 -1 -17 -9 -5 -5 8 -9 29 -9 45 1 29 1
29 9 5 4 -14 8 -34 9 -45z m-832 -37 c-3 -8 -6 -5 -6 6 -1 11 2 17 5 13 3 -3
4 -12 1 -19z m3137 -137 c-12 -96 -23 -103 -23 -14 -1 71 1 82 15 76 12 -4 14
-16 8 -62z m-3527 37 c-3 -8 -6 -5 -6 6 -1 11 2 17 5 13 3 -3 4 -12 1 -19z
m100 -160 c-3 -8 -6 -5 -6 6 -1 11 2 17 5 13 3 -3 4 -12 1 -19z m317 -189 c-9
-35 -19 -66 -21 -69 -7 -7 5 67 18 108 18 57 20 28 3 -39z m61 31 c-4 -17 -9
-29 -12 -26 -3 2 -2 19 2 36 4 17 9 29 12 26 3 -2 2 -19 -2 -36z m-330 -283
c24 -36 35 -63 34 -87 l0 -35 -19 42 c-47 106 -183 262 -217 249 -11 -5 -14
-2 -9 10 3 8 6 23 6 32 0 22 158 -141 205 -211z m-65 -19 c20 -31 47 -85 60
-120 13 -35 27 -67 32 -72 4 -6 8 -20 8 -33 0 -16 8 -27 24 -33 18 -6 25 -19
30 -53 6 -39 -6 -163 -17 -174 -2 -2 -7 21 -11 51 -3 30 -15 96 -27 146 -17
73 -24 90 -38 87 -9 -2 -15 -7 -15 -13 1 -5 5 -27 9 -49 12 -68 -1 -36 -49
125 -49 160 -79 219 -128 248 -16 9 -28 25 -28 36 0 28 99 -69 150 -146z m231
6 c-10 -54 -22 -121 -26 -149 l-8 -50 -12 45 c-7 25 -17 57 -23 72 -14 35 2
100 23 92 10 -4 21 10 36 45 13 28 24 49 26 48 1 -2 -6 -48 -16 -103z m152
-62 c-15 -45 -29 -80 -30 -78 -2 2 4 44 14 94 15 74 20 89 31 78 10 -10 8 -28
-15 -94z m-231 -117 c3 -14 1 -28 -3 -31 -5 -3 -9 9 -9 25 0 38 6 40 12 6z
m183 -291 c20 -3 34 1 43 13 10 15 12 12 12 -19 0 -58 -12 -128 -22 -128 -5 0
-6 9 -3 20 6 20 -18 40 -32 27 -23 -24 -71 -400 -53 -422 5 -6 5 -35 1 -70 -5
-33 -7 -63 -4 -67 8 -15 32 -8 35 10 2 9 7 -68 11 -173 9 -226 16 -280 37
-280 12 0 14 15 12 88 -2 48 -2 87 1 87 3 0 15 -25 26 -55 20 -53 37 -80 128
-197 55 -72 233 -238 255 -238 31 0 20 27 -29 70 l-48 42 48 -33 c38 -26 50
-30 60 -20 10 10 4 19 -28 44 -22 18 -75 65 -117 106 -62 59 -80 72 -91 62
-12 -9 -24 3 -64 61 -28 40 -62 96 -76 123 -29 59 -81 205 -74 211 2 3 17 -25
33 -61 20 -45 34 -65 46 -65 10 0 18 5 18 10 0 19 -80 170 -90 170 -11 0 -12
96 -1 180 l7 55 8 -90 c8 -102 40 -225 59 -225 15 -1 67 -81 67 -104 0 -9 -7
-16 -15 -16 -20 0 -19 -12 6 -55 12 -19 18 -42 15 -51 -9 -23 116 -147 254
-255 63 -49 134 -105 157 -125 33 -28 46 -34 56 -25 11 8 19 5 34 -12 30 -33
54 -73 47 -79 -9 -10 36 -90 82 -145 25 -29 40 -54 34 -58 -6 -3 11 -37 40
-80 28 -41 50 -81 50 -90 0 -8 16 -69 35 -134 19 -65 35 -127 35 -138 0 -29
28 -52 40 -33 5 8 6 19 2 25 -3 5 47 -42 111 -105 65 -63 122 -116 127 -118
11 -4 60 27 60 38 0 4 -16 28 -36 54 l-36 47 38 -19 c22 -11 44 -17 50 -15 7
2 17 -10 23 -27 8 -25 8 -35 -3 -46 -24 -23 -39 -199 -22 -252 5 -14 -1 -17
-32 -17 -20 1 -49 4 -64 9 -24 7 -26 10 -15 28 10 16 9 22 -5 32 -26 19 -22
27 8 16 35 -14 44 -13 44 5 0 9 -35 32 -82 56 -46 23 -104 57 -131 75 -54 39
-82 44 -74 14 4 -16 -11 -11 -97 32 -86 44 -113 64 -182 136 -48 50 -86 82
-93 78 -17 -11 -14 -24 15 -62 15 -19 22 -34 16 -34 -16 0 -72 50 -72 65 0 7
-64 70 -142 138 -166 145 -183 162 -232 240 -35 56 -66 74 -66 40 -1 -16 -2
-16 -16 2 -19 25 -92 110 -123 143 -13 14 -31 53 -40 86 -12 42 -22 61 -32 60
-12 -1 -30 45 -72 180 -31 100 -59 196 -62 213 -4 18 -13 36 -20 41 -18 10 -9
122 11 122 17 0 28 148 20 282 -3 58 -2 109 2 112 13 8 36 325 29 405 -3 39
-3 86 0 105 l5 34 57 -25 c31 -14 70 -27 86 -29z m15 40 c0 -8 -5 -12 -10 -9
-6 4 -8 11 -5 16 9 14 15 11 15 -7z m181 -1938 c47 -72 85 -133 83 -135 -1 -1
-7 0 -13 4 -15 9 -211 303 -211 316 0 18 52 -50 141 -185z m864 -146 c15 -29
11 -61 -5 -43 -10 10 -24 73 -16 73 3 0 13 -14 21 -30z m-550 -78 c-3 -4 -29
18 -58 48 l-52 53 58 -48 c32 -26 55 -50 52 -53z m638 23 c-4 -12 -9 -11 -28
3 -31 23 -22 47 10 26 14 -9 21 -22 18 -29z m-783 -39 c0 -5 -11 1 -25 14 -14
13 -25 31 -25 39 0 17 49 -36 50 -53z m780 -31 c13 -14 21 -25 18 -25 -2 0
-15 11 -28 25 -13 14 -21 25 -18 25 2 0 15 -11 28 -25z m66 -57 l29 -33 -32
29 c-31 28 -38 36 -30 36 2 0 16 -15 33 -32z m-13 -327 c9 -11 5 -10 -19 2
-17 9 -37 24 -45 33 -12 16 -10 15 19 -2 19 -10 39 -25 45 -33z m474 -147 c-3
-3 -12 -4 -19 -1 -8 3 -5 6 6 6 11 1 17 -2 13 -5z"/>
<path d="M2506 1841 c-10 -16 32 -81 86 -130 39 -36 66 -73 96 -135 47 -93
148 -236 168 -236 28 0 20 19 -38 101 -73 102 -105 162 -89 167 6 2 11 8 11
13 0 8 -215 229 -224 229 -3 0 -7 -4 -10 -9z"/>
<path d="M3210 6530 c0 -11 6 -20 13 -20 19 0 27 10 20 26 -8 21 -33 17 -33
-6z"/>
<path d="M3910 6432 c0 -16 9 -22 38 -26 105 -16 267 -27 447 -29 176 -2 200
0 203 14 2 14 -23 17 -210 23 -194 6 -340 17 -440 32 -33 5 -38 3 -38 -14z"/>
<path d="M4363 6198 c-4 -7 -40 -87 -80 -177 -117 -263 -164 -339 -295 -472
-79 -81 -134 -116 -201 -127 -30 -5 -43 -13 -45 -26 -4 -17 1 -18 46 -13 78 9
139 47 237 146 136 137 190 227 320 528 31 70 53 133 50 140 -6 17 -22 17 -32
1z"/>
<path d="M5680 6019 c-98 -35 -213 -49 -402 -49 l-179 0 3 -22 c3 -22 7 -23
123 -26 237 -6 555 56 555 108 0 15 -39 11 -100 -11z"/>
<path d="M4696 5857 c-255 -405 -342 -518 -472 -614 -62 -46 -80 -73 -48 -73
41 0 206 145 283 248 77 105 361 550 361 567 0 8 -8 15 -17 14 -12 0 -49 -49
-107 -142z"/>
<path d="M4701 5604 c-82 -123 -187 -233 -333 -350 -108 -87 -130 -114 -94
-114 19 0 169 116 259 200 108 101 267 308 267 347 0 7 -8 13 -17 13 -11 -1
-42 -37 -82 -96z"/>
<path d="M4855 5119 c-4 -6 -5 -11 -4 -13 52 -38 185 -94 311 -129 69 -19 90
-22 98 -12 15 18 -2 28 -115 59 -55 16 -138 46 -184 67 -92 43 -97 44 -106 28z"/>
<path d="M2510 4410 c0 -15 5 -20 18 -18 9 2 17 10 17 18 0 8 -8 16 -17 18
-13 2 -18 -3 -18 -18z"/>
<path d="M4963 3938 c-16 -26 -83 -204 -83 -221 0 -38 33 -10 57 48 41 102 63
167 57 176 -8 13 -22 11 -31 -3z"/>
<path d="M1360 3798 c-18 -24 -43 -64 -56 -90 -32 -63 -76 -196 -69 -208 10
-17 25 -11 34 13 4 12 20 58 36 101 16 44 48 108 71 142 35 52 40 64 29 74
-11 9 -20 3 -45 -32z"/>
<path d="M3037 3833 c-16 -15 -5 -31 26 -38 29 -7 25 -9 -38 -16 -38 -5 -114
-11 -167 -15 -99 -6 -148 -24 -119 -43 7 -5 22 -6 32 -4 22 6 26 -15 4 -23 -8
-4 -15 -12 -15 -18 0 -10 58 -15 233 -20 149 -4 278 -13 361 -26 71 -11 141
-20 156 -20 16 0 60 -14 100 -31 75 -32 94 -30 84 9 -5 15 -18 25 -48 32 -22
6 -97 28 -166 50 -91 29 -128 36 -137 28 -9 -7 -78 -8 -226 -3 -116 4 -214 9
-216 11 -12 11 19 16 141 22 98 5 132 10 131 20 -3 10 39 18 70 13 4 -1 34 -3
65 -5 79 -5 142 -23 142 -42 0 -30 100 -55 275 -68 110 -9 155 -18 155 -32 0
-8 7 -14 15 -14 8 0 15 7 15 16 0 12 10 15 47 13 38 -3 49 0 51 13 4 21 -15
26 -138 31 -56 3 -111 11 -133 20 -29 12 -42 14 -56 6 -13 -9 -37 -8 -92 2
-63 12 -69 14 -36 17 24 2 37 8 37 17 0 16 -4 17 -120 36 -59 9 -70 13 -52 20
26 10 30 39 5 39 -10 0 -60 -5 -110 -10 -58 -6 -111 -6 -140 -1 -82 16 -130
21 -136 14z"/>
<path d="M1260 3773 c-18 -20 -41 -55 -51 -77 -24 -55 -43 -169 -35 -214 3
-24 1 -41 -9 -52 -10 -11 -16 -56 -21 -160 -7 -168 8 -267 52 -333 18 -27 29
-62 35 -108 18 -145 158 -370 265 -427 11 -6 44 -14 72 -18 49 -6 52 -5 52 15
0 17 -6 21 -32 22 -18 0 -42 4 -53 9 -14 6 1 9 50 10 104 2 149 12 153 34 4
17 -1 18 -43 12 -26 -3 -77 -6 -112 -6 -56 0 -66 -3 -70 -20 -3 -11 -9 -20
-14 -20 -10 0 -23 21 -24 37 0 6 -21 29 -46 52 -59 52 -89 108 -97 185 -5 47
-11 62 -24 64 -12 2 -18 -3 -19 -15 -1 -21 -11 10 -23 67 -6 32 -5 33 8 15 10
-13 18 -17 25 -10 6 7 -5 53 -34 140 -63 192 -89 359 -64 422 6 15 12 71 13
123 2 106 22 165 76 227 17 19 29 40 27 46 -7 23 -25 16 -57 -20z m-50 -750
c10 -36 14 -61 10 -56 -14 14 -40 103 -39 131 1 19 3 21 6 8 3 -10 13 -47 23
-83z"/>
<path d="M4755 3684 c-16 -9 -40 -22 -53 -29 -13 -7 -28 -20 -35 -28 -7 -8
-47 -22 -90 -31 -104 -20 -181 -76 -149 -108 8 -8 16 -7 28 3 10 8 27 14 38
14 14 0 21 6 20 17 -1 11 10 21 30 27 30 10 30 10 9 -6 -28 -19 -29 -31 -5
-49 22 -17 42 -18 42 -1 1 20 82 74 132 86 71 17 109 14 165 -15 40 -19 54
-33 63 -59 10 -30 7 -41 -30 -114 l-40 -81 -38 19 c-20 10 -65 40 -100 65 -34
25 -64 46 -67 46 -12 0 -45 -36 -45 -48 0 -11 -15 -13 -77 -8 -89 7 -148 -3
-148 -24 0 -8 -13 -20 -30 -26 -16 -6 -38 -15 -47 -19 -15 -6 -15 1 7 65 13
39 38 96 56 126 18 32 28 61 25 71 -6 15 -9 15 -25 -3 -11 -10 -30 -40 -44
-67 -19 -36 -26 -44 -31 -30 -14 36 -36 -13 -51 -117 -9 -58 -32 -162 -51
-232 -34 -123 -73 -372 -61 -384 3 -4 12 -4 20 -1 10 4 17 30 21 79 8 82 43
264 55 286 5 8 11 -35 15 -99 12 -204 26 -301 72 -519 25 -118 49 -225 54
-237 8 -20 5 -23 -31 -33 -34 -9 -288 -50 -312 -50 -5 0 -27 20 -49 45 -57 62
-195 113 -186 69 2 -10 22 -23 52 -31 27 -8 59 -21 72 -30 24 -15 70 -81 62
-88 -2 -3 -20 0 -39 5 -49 14 -79 12 -79 -5 0 -8 -1 -15 -3 -15 -2 0 -44 17
-94 37 -81 34 -95 44 -145 104 -54 63 -55 67 -43 96 7 17 49 70 93 119 61 67
78 92 70 102 -14 16 -24 7 -132 -113 -44 -49 -90 -95 -101 -100 -18 -10 -20
-20 -20 -95 0 -113 11 -162 33 -158 10 2 16 12 14 23 -1 11 -5 54 -8 95 l-7
75 42 -40 c23 -22 37 -41 31 -43 -22 -8 -8 -34 25 -48 20 -8 41 -26 47 -39 13
-28 38 -34 38 -9 0 12 5 14 18 9 75 -33 255 -94 263 -90 19 12 8 34 -22 40
-42 9 -30 18 14 10 30 -6 38 -13 56 -56 19 -47 33 -59 46 -39 3 5 -5 36 -18
68 l-24 59 67 -5 c38 -2 83 0 102 6 l33 11 -25 -17 c-58 -40 -75 -60 -63 -72
8 -9 41 8 137 75 l127 87 -7 36 c-3 21 -25 129 -49 242 -53 254 -52 248 -71
460 -8 96 -17 196 -20 223 -4 26 -4 47 0 47 3 0 27 -21 53 -48 55 -54 185
-126 214 -119 10 3 52 -1 91 -7 40 -7 79 -11 86 -8 21 7 9 36 -18 42 -24 6
-24 6 13 29 20 12 36 25 35 29 -1 4 2 15 6 25 11 23 0 48 -17 42 -7 -3 -21
-19 -31 -36 -10 -17 -37 -39 -60 -50 -49 -22 -83 -25 -43 -3 15 8 27 18 27 22
0 4 14 23 30 42 35 41 37 50 9 57 -15 4 -19 11 -15 27 3 11 6 32 6 47 0 24 1
25 53 19 42 -5 78 -20 135 -55 1 -1 -6 -24 -17 -51 -10 -27 -25 -64 -31 -81
-7 -18 -19 -33 -26 -33 -16 0 -19 -27 -4 -32 17 -6 -10 -86 -32 -91 -18 -5
-19 -12 -13 -139 5 -95 11 -136 21 -144 16 -13 19 -80 4 -89 -5 -3 -10 -31
-10 -61 0 -30 -4 -54 -9 -54 -5 0 -22 -53 -36 -117 -15 -65 -43 -167 -63 -227
-22 -68 -32 -111 -25 -113 16 -6 -70 -217 -90 -221 -10 -2 -17 -13 -17 -24 0
-19 -2 -20 -17 -6 -31 26 -123 78 -138 78 -30 0 -14 -31 32 -60 26 -17 42 -30
35 -30 -7 0 -12 -12 -13 -27 l-1 -28 -14 33 c-8 17 -19 32 -24 32 -21 0 -20
-28 1 -81 17 -41 21 -71 20 -126 -2 -58 1 -73 12 -73 16 0 27 21 27 50 0 10
10 20 22 23 20 6 20 7 5 31 -17 25 -21 91 -9 133 7 22 8 22 31 4 16 -12 21
-23 15 -32 -4 -8 -9 -42 -10 -77 -1 -34 -7 -69 -13 -76 -6 -7 -28 -55 -50
-107 -59 -143 -208 -438 -250 -494 -20 -27 -73 -90 -118 -140 -46 -49 -83 -96
-83 -102 0 -26 39 -12 69 25 30 35 31 36 14 5 -13 -24 -15 -35 -7 -43 17 -17
34 4 156 189 80 121 106 166 98 176 -8 9 8 48 56 146 37 74 82 169 100 212 19
43 40 84 48 92 7 8 16 46 20 85 10 96 12 100 47 93 35 -7 40 15 9 35 -24 15
-25 25 -5 46 8 8 35 70 59 138 24 68 60 168 80 222 41 111 66 225 66 301 0 28
5 56 12 63 8 8 13 76 16 204 3 137 8 196 17 203 7 5 18 51 24 102 6 51 23 132
37 180 24 84 93 227 120 248 14 11 84 180 84 203 0 7 -8 12 -17 10 -11 -2 -27
-28 -42 -67 -14 -35 -27 -57 -29 -50 -8 26 -42 94 -54 110 -37 47 -136 63
-193 33z m-65 -299 c10 -12 10 -15 -4 -15 -9 0 -16 7 -16 15 0 8 2 15 4 15 2
0 9 -7 16 -15z m-76 -72 c-3 -16 -7 -33 -9 -40 -2 -7 0 -15 6 -18 16 -10 -1
-78 -27 -106 -19 -19 -21 -28 -12 -37 15 -15 0 -16 -36 -2 -16 6 -26 17 -26
29 0 11 -9 42 -19 70 -34 85 -4 131 87 131 41 0 42 -1 36 -27z m-190 -75 c-4
-40 -9 -75 -11 -78 -6 -7 -113 108 -113 121 0 8 4 8 14 0 10 -9 24 -6 57 9 24
11 47 20 52 20 4 0 4 -33 1 -72z m55 -111 c1 -5 -3 -5 -9 -2 -5 3 -10 16 -9
28 0 21 1 21 9 2 5 -11 9 -24 9 -28z m328 -149 c-3 -8 -6 -5 -6 6 -1 11 2 17
5 13 3 -3 4 -12 1 -19z m-30 -130 c-3 -7 -5 -2 -5 12 0 14 2 19 5 13 2 -7 2
-19 0 -25z"/>
<path d="M3823 3554 c-5 -13 -21 -15 -97 -13 -78 3 -91 1 -94 -13 -4 -23 47
-32 151 -26 86 5 147 27 147 53 0 18 -9 19 -44 5 -17 -6 -26 -6 -26 0 0 16
-30 11 -37 -6z"/>
<path d="M3227 3505 c-7 -16 7 -26 65 -44 45 -15 88 -63 88 -99 0 -31 -58
-109 -95 -128 -25 -13 -28 -11 -26 16 1 9 -12 26 -28 38 -29 21 -48 77 -54
159 l-2 28 -75 0 c-63 0 -75 -3 -78 -17 -3 -15 4 -18 45 -19 l48 0 -55 -14
c-30 -7 -100 -21 -155 -30 -144 -24 -145 -24 -145 -41 0 -12 11 -15 56 -13 52
3 59 0 107 -39 65 -53 242 -145 282 -148 17 -1 77 -11 134 -23 113 -24 146
-24 146 -1 0 11 -23 18 -87 29 -49 7 -88 18 -88 22 0 5 31 9 68 9 88 0 175 24
170 48 -3 11 -12 16 -27 14 -13 -1 -30 3 -38 10 -12 10 -18 9 -28 -5 -7 -9
-22 -17 -33 -17 -20 0 -21 1 -7 41 8 23 15 53 15 68 1 60 16 59 75 -2 34 -34
62 -56 71 -53 25 10 -9 63 -72 112 -65 51 -102 69 -184 91 -30 7 -62 16 -71
19 -9 2 -19 -2 -22 -11z m-96 -153 c4 -18 16 -43 28 -56 17 -18 29 -47 19 -46
-30 2 -205 63 -220 77 -20 18 -19 18 48 40 93 30 116 27 125 -15z"/>
<path d="M3202 3464 c4 -21 22 -23 26 -1 2 10 -3 17 -13 17 -10 0 -15 -6 -13
-16z"/>
<path d="M3893 3458 c3 -13 12 -41 21 -63 35 -91 3 -193 -88 -289 -143 -148
-208 -228 -197 -239 9 -9 29 5 84 63 154 162 194 209 226 273 30 60 33 73 28
125 -6 72 -39 152 -63 152 -12 0 -15 -6 -11 -22z"/>
<path d="M1496 2700 c-11 -22 -17 -42 -15 -44 2 -2 18 -7 35 -10 25 -6 33 -3
39 11 16 35 14 63 -5 73 -29 15 -34 13 -54 -30z"/>
<path d="M3627 2623 c-76 -118 -167 -224 -187 -218 -12 4 -41 -21 -106 -95
-49 -55 -91 -108 -93 -117 -2 -9 -21 -40 -42 -68 -41 -54 -48 -75 -26 -75 17
0 61 -59 63 -85 1 -18 -73 -173 -141 -294 -18 -32 -22 -48 -14 -55 16 -17 59
40 117 155 34 69 52 95 56 83 3 -9 12 -14 20 -11 11 5 10 -8 -6 -54 -16 -47
-18 -63 -9 -72 18 -18 33 8 65 108 27 84 39 104 51 85 3 -5 22 -10 41 -10 19
0 34 -5 34 -12 0 -6 -14 -42 -32 -80 -23 -51 -28 -72 -20 -80 18 -18 37 5 68
80 32 77 32 77 39 70 3 -3 -17 -53 -44 -112 l-50 -106 -65 0 c-50 0 -65 -3
-68 -15 -2 -13 -10 -11 -40 10 -20 14 -44 25 -52 25 -30 0 -16 -29 27 -54 23
-14 53 -42 67 -63 35 -52 51 -66 62 -55 6 6 30 -11 65 -43 30 -29 70 -61 88
-71 36 -19 35 -14 47 -169 2 -20 9 -31 22 -33 18 -4 19 1 13 84 -4 68 -9 91
-23 101 -22 16 -15 24 13 17 12 -3 23 -14 26 -24 3 -12 18 -20 46 -25 l41 -7
0 -79 c0 -69 2 -79 18 -79 9 0 27 -3 39 -6 16 -4 23 0 28 18 4 12 16 47 27 75
19 52 20 53 59 53 21 0 39 -4 39 -10 0 -13 27 -13 35 0 3 6 -2 13 -12 17 -10
4 -22 12 -28 19 -6 7 -45 14 -89 17 -59 3 -81 8 -88 21 -5 9 -17 16 -26 16 -9
0 -41 9 -71 20 -33 13 -64 19 -81 15 -24 -5 -38 4 -108 70 -45 42 -86 74 -92
70 -5 -3 -10 -1 -10 4 0 14 2 14 67 -5 31 -9 58 -12 62 -8 12 18 52 13 98 -12
33 -17 68 -26 115 -29 37 -2 75 -8 85 -13 10 -6 68 -15 128 -22 84 -10 123
-10 163 -1 29 6 75 11 103 11 35 0 51 4 56 15 3 9 2 19 -2 23 -10 11 -187 3
-201 -9 -12 -10 -90 -5 -124 8 -8 3 -30 5 -47 4 -18 -2 -57 6 -86 18 -37 13
-67 18 -94 14 -33 -4 -50 0 -84 21 -24 14 -42 26 -39 26 3 1 45 3 93 5 90 5
131 17 124 38 -4 14 -166 11 -181 -4 -6 -5 -14 -9 -20 -9 -5 0 -3 6 5 13 8 6
27 28 42 49 19 26 32 35 46 31 23 -6 49 29 90 119 l29 63 -5 -123 c-7 -139 -1
-155 65 -167 20 -4 52 -16 69 -27 34 -20 45 -21 187 -12 88 6 133 -3 156 -31
12 -15 -19 -93 -53 -129 -12 -13 -36 -39 -54 -59 -27 -30 -42 -37 -101 -47
l-69 -11 1 -92 c1 -75 4 -92 16 -92 11 0 16 15 18 63 2 34 7 62 12 62 6 0 10
6 10 14 0 9 17 16 48 21 26 4 52 10 57 14 6 5 19 11 30 15 11 4 -6 -19 -37
-51 -57 -57 -71 -83 -45 -83 6 0 20 7 30 15 11 7 25 11 32 9 22 -9 242 307
229 328 -3 5 -14 8 -24 6 -23 -4 -70 39 -64 57 3 7 -2 61 -10 120 -18 118 -19
141 -6 108 6 -16 18 -23 35 -23 14 0 25 -4 25 -10 0 -5 7 -10 15 -10 24 0 17
24 -15 55 -16 16 -30 35 -30 42 0 7 -11 18 -25 23 -27 10 -37 38 -33 89 4 48
-16 49 -40 1 -14 -28 -21 -36 -26 -25 -6 17 -36 21 -36 4 0 -6 15 -59 34 -118
19 -58 38 -122 41 -141 4 -19 14 -47 23 -62 22 -37 10 -44 -32 -19 -23 14 -43
20 -59 16 -24 -6 -24 -6 -32 86 -6 78 -4 94 9 101 21 12 10 35 -20 42 -23 6
-34 26 -14 26 6 0 10 9 10 20 0 11 -7 20 -15 20 -8 0 -15 -4 -15 -9 0 -5 -8
-7 -17 -5 -28 7 -47 -42 -28 -70 11 -15 15 -49 15 -123 0 -95 -2 -103 -19
-103 -11 0 -26 -3 -35 -6 -14 -5 -16 12 -16 155 0 156 -1 161 -20 161 -20 0
-21 -4 -18 -155 2 -85 0 -155 -3 -155 -4 0 -13 7 -20 17 -10 11 -15 55 -17
152 -3 154 -5 163 -27 154 -14 -5 -16 -25 -13 -149 2 -117 0 -143 -10 -139 -8
3 -18 5 -24 5 -13 0 -5 194 12 279 5 30 8 63 4 73 -7 24 -42 42 -57 30 -7 -5
-30 -15 -52 -22 -22 -7 -71 -28 -108 -48 -68 -35 -70 -35 -130 -24 -34 6 -76
10 -94 10 -20 -1 -50 11 -82 32 -55 35 -86 72 -53 63 14 -3 32 16 74 79 31 46
104 137 162 203 104 117 236 297 236 323 0 31 -34 6 -73 -55z m134 -630 c-12
-20 -14 -14 -5 12 4 9 9 14 11 11 3 -2 0 -13 -6 -23z m-89 -26 c-37 -38 -42
-62 -12 -54 22 6 7 -20 -95 -155 -30 -40 -55 -79 -55 -85 0 -7 -3 -13 -7 -13
-5 0 -18 -3 -30 -6 -21 -6 -18 3 29 104 42 92 55 111 72 109 13 -1 22 5 24 17
3 15 0 18 -17 13 -24 -6 -25 -6 -10 26 11 24 88 69 128 76 3 1 -9 -14 -27 -32z
m-357 -44 c-4 -10 -9 -25 -12 -34 -3 -11 -12 -14 -28 -11 -22 4 -23 5 -6 33
18 32 59 42 46 12z m15 -313 c0 -5 -7 -7 -15 -4 -8 4 -15 8 -15 10 0 2 7 4 15
4 8 0 15 -4 15 -10z m110 0 c20 -6 21 -8 5 -8 -11 0 -29 3 -40 8 -25 11 1 11
35 0z m828 -142 c-20 -35 -48 -68 -48 -56 0 2 11 20 25 39 18 24 24 41 20 58
-5 21 -4 23 9 12 14 -12 14 -17 -6 -53z m-68 -91 c0 -2 -10 -12 -22 -23 l-23
-19 19 23 c18 21 26 27 26 19z m-439 -57 c6 0 7 -5 4 -11 -4 -5 -15 -34 -26
-62 l-18 -52 -1 69 c0 58 2 67 16 62 9 -3 20 -6 25 -6z"/>
<path d="M1510 2605 c0 -10 7 -15 18 -13 21 4 19 22 -2 26 -10 2 -16 -3 -16
-13z"/>
<path d="M3662 2304 c4 -21 22 -23 26 -1 2 10 -3 17 -13 17 -10 0 -15 -6 -13
-16z"/>
<path d="M3121 1934 c-29 -31 -54 -54 -58 -51 -3 3 12 21 32 40 36 33 40 57
10 57 -34 0 -133 -133 -150 -202 -11 -44 19 -35 50 15 17 27 24 33 19 17 -4
-14 -18 -42 -30 -62 -13 -21 -24 -47 -24 -58 0 -24 28 -39 40 -20 5 8 9 9 14
1 15 -24 34 -9 55 42 12 28 38 82 57 119 19 37 34 74 34 82 0 7 7 19 15 26 19
16 20 50 1 50 -8 0 -37 -25 -65 -56z"/>
<path d="M4366 1482 c-4 -11 -15 -18 -28 -18 -18 1 -26 -10 -44 -59 -41 -113
-73 -171 -128 -233 -31 -35 -56 -66 -56 -71 0 -13 -97 -31 -166 -31 -44 0 -64
-4 -64 -12 -1 -8 -7 -5 -15 6 -8 10 -20 16 -27 13 -8 -2 -47 -60 -87 -128 -95
-161 -125 -199 -151 -192 -12 3 -20 0 -20 -6 0 -7 -8 -11 -17 -9 -10 2 -19 -4
-21 -14 -4 -19 22 -25 33 -8 3 6 13 10 22 10 12 0 10 -9 -11 -44 -33 -56 -33
-70 -2 -62 14 3 28 1 31 -4 5 -8 11 -7 21 0 16 14 119 181 160 260 34 67 33
65 39 58 3 -3 -7 -27 -22 -54 -37 -63 -91 -177 -95 -200 -2 -11 4 -20 13 -22
12 -2 26 18 50 72 28 63 37 75 53 70 16 -5 18 -2 13 22 -3 20 3 42 19 71 23
38 23 42 8 51 -15 8 -15 10 0 15 20 8 21 37 1 37 -13 0 -14 4 -5 20 6 10 16
17 23 14 7 -2 49 -8 92 -12 l80 -7 -3 -32 c-4 -45 17 -43 56 6 18 22 32 42 32
46 0 11 104 171 146 225 47 60 115 205 107 227 -7 19 -31 16 -37 -5z"/>
<path d="M3840 1250 c0 -22 -9 -63 -20 -92 -25 -65 -25 -68 -1 -68 11 0 23 9
26 20 3 11 12 20 20 20 15 0 31 43 41 113 l6 47 -36 0 c-35 0 -36 -1 -36 -40z"/>
<path d="M3317 1128 c-2 -7 22 -40 53 -74 50 -52 59 -67 65 -110 3 -27 14
-100 23 -161 14 -90 15 -113 5 -113 -7 0 -13 -7 -13 -15 0 -19 19 -19 44 0 19
15 20 17 2 124 -12 67 -16 126 -12 152 6 37 3 46 -30 88 -38 47 -114 120 -126
121 -3 0 -8 -6 -11 -12z"/>
</g>
</svg>
